<?xml version="1.0" encoding="UTF-8"?><svg id="Calque_2" xmlns="http://www.w3.org/2000/svg" xmlns:xlink="http://www.w3.org/1999/xlink" viewBox="0 0 200.23 210.82"><defs><style>.cls-1{fill:none;}.cls-2{clip-path:url(#clippath);}.cls-3{fill:#f3f2f2;}.cls-4{fill:#f7f5f5;}.cls-5{fill:#f2f1f1;}.cls-6{fill:#f9f9f9;}.cls-7{fill:#f9f8f8;}.cls-8{fill:#f8f7f6;}.cls-9{fill:#eeeded;}.cls-10{fill:#ebe7e7;}.cls-11{fill:#f0efef;}.cls-12{fill:#eae6e6;}.cls-13{fill:#f4f3f3;}.cls-14{fill:#f5f3f4;}.cls-15{fill:#fcfcfc;}.cls-16{fill:#e7e4e4;}.cls-17{fill:#e6e2e2;}.cls-18{fill:#e3e0e0;}.cls-19{fill:#edebeb;}.cls-20{fill:#ededec;}.cls-21{fill:#fff;}.cls-22{fill:#e8e5e5;}.cls-23{fill:#f1efef;}.cls-24{fill:#ece8e8;}.cls-25{fill:#ece9e9;}.cls-26{fill:#fafaed;}.cls-27{fill:#fafafa;}.cls-28{fill:#ffbd00;}.cls-29{fill:#fbfbfb;}.cls-30{fill:#e5e1e1;}.cls-31{fill:#e53425;}.cls-32{fill:#ff3934;}.cls-33{fill:#efeeee;}.cls-34{fill:#fdfdfd;}.cls-35{fill:#cdc5c6;}.cls-36{fill:#dedbdb;}.cls-37{fill:#dddad9;}.cls-38{fill:#dcd8d8;}.cls-39{fill:#e0dcdc;}.cls-40{fill:#e2e0df;}.cls-41{fill:#e2dfdf;}.cls-42{fill:#e2dede;}.cls-43{fill:#e1dddd;}.cls-44{fill:#dfdbdb;}.cls-45{fill:#1720f9;}.cls-46{fill:#17213b;}.cls-47{fill:#a29a9a;}.cls-48{fill:#3c4754;}</style><clipPath id="clippath"><path class="cls-1" d="M125.47,46.6l-.02,12.81s-2.44,0-3.75,0c-1.31,0-2.26-2.54-2.05-6.98,.2-4.44,.26-5.83,.26-5.83h5.56Z"/></clipPath></defs><g id="Calque_1-2"><g><circle class="cls-45" cx="100.23" cy="110.75" r="100"/><g><circle class="cls-47" cx="111.4" cy="49.15" r="6.08" transform="translate(-1.6 3.79) rotate(-1.94)"/><path class="cls-35" d="M106.56,49.14c0,2.67,2.16,4.85,4.83,4.85,2.67,0,4.85-2.16,4.85-4.83,0-2.67-2.16-4.85-4.83-4.85-2.67,0-4.85,2.16-4.85,4.83Z"/><polygon class="cls-46" points="98.82 57.62 98.82 62.51 108.28 62.57 108.63 57.64 98.82 57.62"/><path class="cls-48" d="M97.32,54.59c.11,0,1.71,.6,5.22,.92,3.51,.32,6.46,.3,6.46,.3l-.53,2.68s-4.09,0-7.48-.17-3.88-.55-3.98-.82c-.11-.28-.04-2.6,0-2.75,.04-.15,.3-.15,.3-.15Z"/><g><path class="cls-28" d="M126.97,58.68v-.06s0,.02,0,.06Z"/><path class="cls-28" d="M97.13,58.58v.06s0-.06,0-.06Z"/><path class="cls-28" d="M99.44,59.59c1.96,.12,9.6,.15,12.61,.16,3.01,0,10.66-.01,12.61-.12,2.06-.12,2.29-.75,2.31-.95l-1.44,87.29s-.15,1.73-4.04,2.01c-2.54,.18-5.62,.24-8.35,.26h0s-.46,.01-1.23,0c-.76,0-1.23,0-1.23,0h0c-2.74-.04-5.4-.05-7.94-.24-3.89-.29-4.03-2.02-4.03-2.02l-1.58-87.35c.02,.2,.24,.83,2.3,.95Z"/></g><path class="cls-38" d="M126.97,58.62l.02-9.31s.12-2.57-1.27-2.71l-14.09-.02s-1.99-.23-2.5,3.16c-.51,3.38-1.17,9.86-1.17,9.86l16.7,.03s2.05,.08,2.31-1.01Z"/><g class="cls-2"><polygon class="cls-21" points="125.45 59.41 125.47 46.6 125.47 59.41 125.45 59.41"/><polygon class="cls-21" points="125.3 59.41 125.32 46.6 125.47 46.6 125.47 46.6 125.45 59.41 125.3 59.41"/><polygon class="cls-21" points="125.15 59.41 125.16 46.6 125.32 46.6 125.3 59.41 125.15 59.41"/><polygon class="cls-34" points="124.99 59.41 125.01 46.6 125.16 46.6 125.15 59.41 124.99 59.41"/><polygon class="cls-15" points="124.84 59.41 124.86 46.6 125.01 46.6 124.99 59.41 124.84 59.41"/><polygon class="cls-29" points="124.68 59.41 124.7 46.6 124.86 46.6 124.84 59.41 124.68 59.41"/><polygon class="cls-27" points="124.53 59.41 124.55 46.6 124.7 46.6 124.68 59.41 124.53 59.41"/><polygon class="cls-6" points="124.38 59.41 124.4 46.6 124.55 46.6 124.53 59.41 124.38 59.41"/><polygon class="cls-7" points="124.22 59.41 124.24 46.6 124.4 46.6 124.38 59.41 124.22 59.41"/><polygon class="cls-8" points="124.07 59.41 124.09 46.6 124.24 46.6 124.22 59.41 124.07 59.41"/><polygon class="cls-4" points="123.92 59.41 123.94 46.6 124.09 46.6 124.07 59.41 123.92 59.41"/><polygon class="cls-14" points="123.76 59.41 123.78 46.6 123.94 46.6 123.92 59.41 123.76 59.41"/><polygon class="cls-13" points="123.61 59.41 123.63 46.6 123.78 46.6 123.76 59.41 123.61 59.41"/><polygon class="cls-3" points="123.46 59.41 123.47 46.6 123.63 46.6 123.61 59.41 123.46 59.41"/><polygon class="cls-5" points="123.3 59.41 123.32 46.6 123.47 46.6 123.46 59.41 123.3 59.41"/><polygon class="cls-23" points="123.15 59.41 123.17 46.6 123.32 46.6 123.3 59.41 123.15 59.41"/><polygon class="cls-11" points="122.99 59.41 123.01 46.6 123.17 46.6 123.15 59.41 122.99 59.41"/><polygon class="cls-33" points="122.84 59.41 122.86 46.6 123.01 46.6 122.99 59.41 122.84 59.41"/><polygon class="cls-9" points="122.69 59.41 122.71 46.6 122.86 46.6 122.84 59.41 122.69 59.41"/><polygon class="cls-20" points="122.53 59.41 122.55 46.6 122.71 46.6 122.69 59.41 122.53 59.41"/><polygon class="cls-19" points="122.38 59.41 122.4 46.6 122.55 46.6 122.53 59.41 122.38 59.41"/><polygon class="cls-25" points="122.23 59.41 122.25 46.6 122.4 46.6 122.38 59.41 122.23 59.41"/><polygon class="cls-24" points="122.07 59.41 122.09 46.6 122.25 46.6 122.23 59.41 122.07 59.41"/><polygon class="cls-10" points="121.92 59.41 121.94 46.6 122.09 46.6 122.07 59.41 121.92 59.41"/><polygon class="cls-12" points="121.77 59.41 121.78 46.6 121.94 46.6 121.92 59.41 121.77 59.41"/><polygon class="cls-22" points="121.61 59.41 121.63 46.6 121.78 46.6 121.77 59.41 121.61 59.41"/><polygon class="cls-16" points="121.46 59.41 121.48 46.6 121.63 46.6 121.61 59.41 121.46 59.41"/><polygon class="cls-17" points="121.3 59.41 121.32 46.6 121.48 46.6 121.46 59.41 121.3 59.41"/><polygon class="cls-30" points="121.15 59.41 121.17 46.6 121.32 46.6 121.3 59.41 121.15 59.41"/><polygon class="cls-18" points="121 59.41 121.02 46.6 121.17 46.6 121.15 59.41 121 59.41"/><polygon class="cls-40" points="120.84 59.41 120.86 46.6 121.02 46.6 121 59.41 120.84 59.41"/><polygon class="cls-41" points="120.69 59.41 120.71 46.6 120.86 46.6 120.84 59.41 120.69 59.41"/><polygon class="cls-42" points="120.54 59.41 120.56 46.6 120.71 46.6 120.69 59.41 120.54 59.41"/><polygon class="cls-43" points="120.38 59.41 120.4 46.6 120.56 46.6 120.54 59.41 120.38 59.41"/><polygon class="cls-39" points="120.23 59.41 120.25 46.6 120.4 46.6 120.38 59.41 120.23 59.41"/><polygon class="cls-44" points="120.08 59.41 120.09 46.6 120.25 46.6 120.23 59.41 120.08 59.41"/><polygon class="cls-36" points="119.92 59.41 119.94 46.6 120.09 46.6 120.08 59.41 119.92 59.41"/><polygon class="cls-37" points="119.77 59.41 119.79 46.6 119.94 46.6 119.92 59.41 119.77 59.41"/><polygon class="cls-38" points="119.61 59.41 119.63 46.6 119.79 46.6 119.77 59.41 119.61 59.41"/><polygon class="cls-38" points="119.63 46.6 119.61 59.41 119.45 59.41 119.45 46.6 119.63 46.6"/></g><path class="cls-46" d="M114.68,58.05v-1.08s-3.29,0-3.29,0v1.08s.05,.41,1.64,.37c1.59-.03,1.65-.37,1.65-.37Z"/><path class="cls-46" d="M97.07,61.87s-.15,.89,2.08,.97l25.54,.04s1.92,.04,2.28-1.22v-3.03s-.26,.5-1.86,.58c-1.6,.07-24.83,.07-25.96,0-1.12-.08-2.02-.62-2.02-.62l-.06,3.29Z"/><path class="cls-46" d="M125.93,50.07v5.8s.03,.46-.46,.49c-.48,.03-.58-.46-.58-.46v-5.83s.01-.59,.52-.61,.51,.61,.51,.61Z"/><path class="cls-46" d="M123.75,50.07v5.8s.03,.46-.46,.49-.58-.46-.58-.46v-5.83s.01-.59,.52-.61c.51-.02,.51,.61,.51,.61Z"/><path class="cls-46" d="M121.47,50.07v5.8s.03,.46-.46,.49c-.48,.03-.58-.46-.58-.46v-5.83s.01-.59,.52-.61c.51-.02,.51,.61,.51,.61Z"/><rect class="cls-46" x="127.27" y="56.8" width=".91" height="1.49" transform="translate(69.98 185.18) rotate(-89.91)"/><rect class="cls-47" x="124.71" y="55.74" width=".91" height="3.61" transform="translate(67.44 182.62) rotate(-89.91)"/></g><path class="cls-26" d="M48.2,210.16c3.94-1.93,8.78-4.97,15.19-9.5,6.35-4.49,47.51-12.98,51.99-15.26,4.48-2.28,17.44-19.62,19.97-27.6,2.53-7.98,.96-12.18,.96-12.18,0,0,5.09-6.69,7.16-11.85s-.77-14-.77-14c0,0,7.6-6.56,6.46-14.62-1.14-8.06-4.87-11.79-4.87-11.79,0,0,4.04-2.6,.84-13.73-3.19-11.13-13.1-10.1-13.1-10.1-1.79,.28-20.79,4.98-39.37,11.57-18.58,6.59-32.13,7.68-35.52,8.61-3.38,.93-17.03,14.72-24.91,26.94-7.88,12.23-26.55,48.15-32.23,59.37,2.36,2.52,4.95,5.1,7.78,7.71,4.45,4.12,8.83,7.68,12.96,10.74,4.28,3.01,9.11,6.11,14.5,9.13,4.52,2.54,8.87,4.7,12.97,6.56Z"/><path class="cls-26" d="M106.18,32.87s-5.43,3.73-14.22,8.52c-8.79,4.79-15.31,7.38-17.49,8.51s-5.16,4.61-5.4,5.56c-.24,.95-10.79,14.52-15.55,24.16-4.76,9.64-12.71,18.09-22.49,36.5-9.78,18.41-11.55,23.36-11.55,23.36,0,0,18-.7,37.48-18.94,19.49-18.24,24.3-35.84,24.3-35.84,0,0,3.83-8.87,3.95-10.58,0,0,10.55-9.38,17.4-17.39,6.85-8.01,8.34-11.78,8.18-16.98-.17-5.2-2.91-6.86-4.61-6.86Z"/><polygon class="cls-31" points="90.79 43.75 93.81 45.57 98.13 44.86 105.66 40.99 109.04 38.4 109.98 37.65 110.38 36.67 109.22 33.82 107.75 32.7 106.5 32.75 89.54 42.72 90.79 43.75"/><path class="cls-45" d="M104.46,112.58c-.26,0-.5-.16-.6-.41-.13-.33,.04-.71,.37-.83,.36-.14,35.73-13.8,39.95-18.73,.23-.27,.64-.3,.91-.07,.27,.23,.3,.64,.07,.91-4.44,5.18-39,18.53-40.47,19.1-.08,.03-.15,.04-.23,.04Z"/><path class="cls-45" d="M111.16,140.16c-.25,0-.48-.14-.59-.38-.14-.33,0-.71,.33-.85,9.53-4.21,29.26-17.12,31.77-20.01,.23-.27,.64-.3,.91-.06,.27,.23,.3,.64,.06,.91-2.64,3.03-22.34,15.97-32.22,20.34-.08,.04-.17,.06-.26,.06Z"/><path class="cls-45" d="M68.62,88.29c-.29,0-.56-.2-.63-.5-.08-.35,.14-.69,.49-.77,.05-.01,4.86-1.11,19.89-5.13,9.09-2.43,21.17-6.31,29.99-9.15,6.22-2,10.33-3.32,11.3-3.48,.35-.06,.68,.19,.74,.54,.06,.35-.19,.68-.54,.74-.87,.14-5.38,1.59-11.1,3.43-8.83,2.84-20.93,6.73-30.05,9.17-15.06,4.03-19.89,5.13-19.93,5.14-.05,.01-.1,.02-.14,.02Z"/><path class="cls-45" d="M80.6,85.25h0l-11.73-.15c-.36,0-.64-.3-.64-.65,0-.36,.3-.64,.65-.64l11.36,.14c2.39-4.11,4.42-9.95,4.45-10.01,.04-.1,.09-.19,.17-.26,.12-.11,12.26-11.3,18.91-19.35,6.63-8.02,7.31-14.55,5.74-17.98-1.43-3.13-3.03-2.81-3.09-2.79l-1.9,.13,1.57-1.38c.11-.03,2.68-.7,4.6,3.5,.7,1.53,1.32,4.18,.3,8.1-.94,3.6-3.03,7.38-6.22,11.24-6.35,7.69-17.63,18.18-18.91,19.37-.36,1.01-2.35,6.5-4.69,10.42-.12,.19-.33,.31-.55,.31Z"/><path class="cls-45" d="M95.18,46.05c-3.35,0-4.84-2.02-4.92-2.13-.17-.23-.11-.55,.12-.72,.23-.17,.55-.11,.72,.12,.1,.13,2.39,3.15,8.04,.81,5.96-2.46,10.32-6.86,10.36-6.91,.2-.2,.53-.21,.73,0,.2,.2,.21,.53,0,.73-.18,.19-4.54,4.59-10.7,7.14-1.7,.7-3.15,.97-4.35,.97Z"/><path class="cls-45" d="M95.68,46.03c-.26,0-.49-.2-.51-.46-.22-2.07-1.56-3.83-1.58-3.85-.17-.23-.13-.55,.09-.72,.23-.17,.55-.13,.72,.09,.06,.08,1.54,2.01,1.79,4.38,.03,.28-.18,.54-.46,.57-.02,0-.04,0-.05,0Z"/><path class="cls-45" d="M49.84,210.82c6.01-4.04,10.31-6.93,11.51-7.73,3.58-2.36,6.71-3.06,9.73-3.74,1.6-.36,3.11-.7,4.57-1.27,1.93-.75,9.8-3.04,18.13-5.47,9.26-2.7,18.83-5.48,21.82-6.61,3.87-1.46,9.75-9.75,12.1-13.24,4.55-6.78,8.18-13.69,9.23-17.61,.92-3.43,1.2-6.12,.82-7.99-.31-1.53-.97-2.01-1.1-2.09-.25-.15-.57-.12-.78,.08-.11,.1-10.78,10.12-18.41,16.61-.27,.23-.3,.64-.07,.91,.23,.27,.64,.3,.91,.07,6.67-5.68,15.67-14.06,17.93-16.16,.38,.83,.86,3.02-.54,8.24-2.18,8.09-15.23,27.98-20.53,29.98-2.95,1.11-12.5,3.89-21.73,6.58-8.36,2.43-16.25,4.73-18.23,5.51-1.37,.53-2.83,.86-4.38,1.21-2.99,.67-6.38,1.44-10.16,3.92-1.25,.82-5.84,3.91-12.21,8.19"/><path class="cls-32" d="M116.8,22.5s-3.93,9.32-3.44,14.67c.49,5.34,8.17,8.81,10.32,8.81s10.18-10.25,9.85-17.62-9.53-17.69-10.64-19.37,1.72-8.99,1.72-8.99c0,0-6.82,6.99-6.15,11.32,.68,4.33,3.44,12.29,3.81,14.62,.37,2.33-1.17,3.79-2.34,3.74s-3.14-7.18-3.14-7.18Z"/></g></g></svg>